<svg width="26" height="26" viewBox="0 0 26 26" fill="none" xmlns="http://www.w3.org/2000/svg">
<g id="Clip path group">
<mask id="mask0_0_832" style="mask-type:luminance" maskUnits="userSpaceOnUse" x="0" y="0" width="26" height="26">
<g id="d9b2e64f18">
<path id="Vector" d="M0.1297 0.489258H25.454V25.822H0.1297V0.489258Z" fill="white"/>
</g>
</mask>
<g mask="url(#mask0_0_832)">
<g id="Group">
<path id="Vector_2" d="M12.5939 0.505859C5.71025 0.505859 0.129669 6.0828 0.129669 12.9687C0.129669 19.1507 4.63812 24.2876 10.5431 25.2611V16.8077H7.37068V13.1062H10.5431V10.4223C10.5431 7.50729 12.9018 5.53281 15.8158 5.53281C17.1133 5.53281 17.9215 5.72531 17.9215 5.72531V8.83278H15.8158C14.9416 8.83278 14.2323 9.54777 14.2323 10.4223V13.1062H17.6301L17.1573 16.8077H14.2323V25.3161C20.3242 24.5076 25.0306 19.2827 25.0306 12.9687C25.0416 6.0828 19.4665 0.505859 12.5939 0.505859Z" fill="black"/>
</g>
</g>
</g>
</svg>
