<svg width="26" height="26" viewBox="0 0 26 26" fill="none" xmlns="http://www.w3.org/2000/svg">
<g id="Clip path group">
<mask id="mask0_0_837" style="mask-type:luminance" maskUnits="userSpaceOnUse" x="0" y="0" width="26" height="26">
<g id="f8779d2380">
<path id="Vector" d="M0.195923 0.489258H25.5147V25.822H0.195923V0.489258Z" fill="white"/>
</g>
</mask>
<g mask="url(#mask0_0_837)">
<g id="Group">
<path id="Vector_2" d="M12.6107 0.489258C5.74901 0.489258 0.195923 6.0497 0.195923 12.9081C0.195923 19.7666 5.74901 25.327 12.6107 25.327C19.4668 25.327 25.0254 19.7666 25.0254 12.9081C25.0144 6.0497 19.4558 0.489258 12.6107 0.489258ZM19.8517 10.1142C19.8517 10.1142 20.0661 14.8661 16.4538 17.8141C11.0492 22.2085 5.2157 18.6391 5.2157 18.6391C5.2157 18.6391 6.63421 18.6611 7.88778 18.3256C9.13585 17.9956 10.0375 17.1761 10.0375 17.1761C10.0375 17.1761 8.67401 16.8956 7.96475 16.3841C7.25549 15.8671 6.97509 14.8771 6.97509 14.8771C6.97509 14.8771 7.44793 14.9211 7.73933 14.9101C8.04172 14.8991 8.3936 14.7561 8.3936 14.7561C8.3936 14.7561 7.41494 14.6406 6.50225 13.6176C5.782 12.8146 5.83698 11.4671 5.83698 11.4671C5.83698 11.4671 6.26583 11.7256 6.49126 11.7806C6.71668 11.8466 7.15653 11.8466 7.15653 11.8466C7.15653 11.8466 6.29882 11.3407 5.92495 10.0152C5.54558 8.70618 6.26583 7.36969 6.26583 7.36969C6.26583 7.36969 7.54689 8.92068 9.43824 9.91067C11.3296 10.9007 13.111 10.8677 13.111 10.8677C13.111 10.8677 12.8581 10.0812 13.3089 8.92068C13.7598 7.76019 14.7824 6.91869 16.3384 6.8032C17.8943 6.6712 18.895 7.85369 18.895 7.85369C18.895 7.85369 19.3788 7.77119 19.9286 7.56769C20.4784 7.36969 21.0228 7.11119 21.0228 7.11119C21.0228 7.11119 20.8303 7.70519 20.4565 8.16718C20.0771 8.62918 19.6592 8.90967 19.6592 8.90967C19.6592 8.90967 20.1541 8.87667 20.6489 8.73918C21.1437 8.59618 21.4131 8.45868 21.4131 8.45868C20.8413 9.40467 19.8517 10.1142 19.8517 10.1142Z" fill="black"/>
</g>
</g>
</g>
</svg>
